<svg width="30" height="31" viewBox="0 0 30 31" fill="none" xmlns="http://www.w3.org/2000/svg">
<path d="M21.875 30.4994C21.7438 30.4994 21.6125 30.4581 21.5013 30.3744C21.185 30.1394 13.75 24.5369 13.75 20.0381C13.75 17.5356 15.785 15.4994 18.2875 15.4994C19.7125 15.4994 21.0288 16.1631 21.875 17.2531C22.72 16.1631 24.0363 15.4994 25.4625 15.4994C27.965 15.4994 30 17.5356 30 20.0381C30 24.5381 22.565 30.1394 22.2488 30.3756C22.1375 30.4581 22.0063 30.4994 21.875 30.4994ZM18.2875 16.7494C16.475 16.7494 15 18.2256 15 20.0381C15 23.0744 19.6538 27.3481 21.875 29.0869C24.095 27.3469 28.75 23.0706 28.75 20.0381C28.75 18.2256 27.275 16.7494 25.4625 16.7494C24.1513 16.7494 22.9688 17.5231 22.4488 18.7206C22.2513 19.1769 21.5 19.1769 21.3025 18.7206C20.7813 17.5231 19.5988 16.7494 18.2875 16.7494Z" fill="black"/>
<path d="M11.875 25.4994H6.25C4.87125 25.4994 3.75 24.3781 3.75 22.9994V14.2494H1.25C0.54875 14.2494 0 13.7006 0 12.9994C0 12.6481 0.1525 12.3006 0.4075 12.0719L12.6988 0.666875C12.9388 0.444375 13.31 0.444375 13.5487 0.666875L17.5 4.32938V2.37438C17.5 2.02938 17.78 1.74938 18.125 1.74938H21.875C22.22 1.74938 22.5 2.02938 22.5 2.37438V8.96438L25.85 12.0781C26.1025 12.3131 26.1175 12.7081 25.8825 12.9619C25.6475 13.2144 25.2525 13.2306 24.9988 12.9931L21.4487 9.69313C21.3225 9.57688 21.25 9.41063 21.25 9.23688V2.99938H18.75V5.76188C18.75 6.01063 18.6025 6.23563 18.375 6.33438C18.1462 6.43313 17.8813 6.38813 17.7 6.21938L13.125 1.97688L1.25 12.9944L4.375 12.9994C4.72 12.9994 5 13.2794 5 13.6244V22.9994C5 23.6894 5.56125 24.2494 6.25 24.2494H11.875C12.22 24.2494 12.5 24.5294 12.5 24.8744C12.5 25.2194 12.22 25.4994 11.875 25.4994Z" fill="black"/>
</svg>
